<svg xmlns="http://www.w3.org/2000/svg" viewBox="0 0 64 64">
  <!-- Background circle -->
  <circle cx="32" cy="32" r="30" fill="#f97316"/>

  <!-- Shopping bag outline -->
  <path d="M20 24 L24 50 L40 50 L44 24 Z" fill="none" stroke="white" stroke-width="2.5" stroke-linecap="round" stroke-linejoin="round"/>
  <path d="M26 24 L26 18 C26 14 30 12 32 12 C34 12 38 14 38 18 L38 24" fill="none" stroke="white" stroke-width="2.5" stroke-linecap="round"/>

  <!-- Recycling arrows (small) -->
  <path d="M32 32 L28 38 L36 38 Z" fill="white"/>
  <path d="M28 38 L26 42 L30 42" fill="none" stroke="white" stroke-width="1.5" stroke-linecap="round" stroke-linejoin="round"/>
  <path d="M36 38 L38 42 L34 42" fill="none" stroke="white" stroke-width="1.5" stroke-linecap="round" stroke-linejoin="round"/>

  <!-- Second arrow -->
  <path d="M32 32 L36 26 L28 26 Z" fill="white"/>
  <path d="M36 26 L38 22 L34 22" fill="none" stroke="white" stroke-width="1.5" stroke-linecap="round" stroke-linejoin="round"/>
  <path d="M28 26 L26 22 L30 22" fill="none" stroke="white" stroke-width="1.5" stroke-linecap="round" stroke-linejoin="round"/>

  <!-- Third arrow -->
  <path d="M28 44 L34 44 L32 40 Z" fill="white"/>
</svg>
